<?xml version="1.0" encoding="UTF-8" standalone="no"?>
<!DOCTYPE svg PUBLIC "-//W3C//DTD SVG 1.1//EN"
 "http://www.w3.org/Graphics/SVG/1.1/DTD/svg11.dtd">
<!-- Generated by graphviz version 2.30.1 (20130214.1330)
 -->
<!-- Title: alist2_simple Pages: 1 -->
<svg width="167pt" height="294pt"
 viewBox="0.00 0.00 167.00 294.00" xmlns="http://www.w3.org/2000/svg" xmlns:xlink="http://www.w3.org/1999/xlink">
<g id="graph0" class="graph" transform="scale(1 1) rotate(0) translate(4 290)">
<title>alist2_simple</title>
<polygon fill="white" stroke="white" points="-4,5 -4,-290 164,-290 164,5 -4,5"/>
<!-- node0 -->
<g id="node1" class="node"><title>node0</title>
<polygon fill="#fca790" stroke="none" points="106,-286 52,-286 52,-250 106,-250 106,-286"/>
<text text-anchor="middle" x="79" y="-264.3" font-family="Times New Roman,serif" font-size="14.00">alist2</text>
</g>
<!-- node1 -->
<g id="node2" class="node"><title>node1</title>
<ellipse fill="#fca790" stroke="black" cx="79" cy="-194" rx="44.271" ry="18"/>
<text text-anchor="middle" x="79" y="-190.3" font-family="Times New Roman,serif" font-size="14.00">ArrayList</text>
</g>
<!-- node0&#45;&gt;node1 -->
<g id="edge1" class="edge"><title>node0&#45;&gt;node1</title>
<path fill="none" stroke="black" d="M79,-249.937C79,-241.807 79,-231.876 79,-222.705"/>
<polygon fill="black" stroke="black" points="82.5001,-222.441 79,-212.441 75.5001,-222.441 82.5001,-222.441"/>
</g>
<!-- node3 -->
<g id="node3" class="node"><title>node3</title>
<ellipse fill="#fca790" stroke="black" cx="79" cy="-106" rx="40.4202" ry="18"/>
<text text-anchor="middle" x="79" y="-102.3" font-family="Times New Roman,serif" font-size="14.00">Object[]</text>
</g>
<!-- node1&#45;&gt;node3 -->
<g id="edge2" class="edge"><title>node1&#45;&gt;node3</title>
<path fill="none" stroke="black" d="M79,-175.597C79,-163.746 79,-147.817 79,-134.292"/>
<polygon fill="black" stroke="black" points="82.5001,-134.084 79,-124.084 75.5001,-134.084 82.5001,-134.084"/>
<text text-anchor="middle" x="113" y="-146.3" font-family="Times New Roman,serif" font-size="14.00">elementData</text>
</g>
<!-- node14 -->
<g id="node4" class="node"><title>node14</title>
<ellipse fill="#fca790" stroke="black" cx="35" cy="-18" rx="35.6194" ry="18"/>
<text text-anchor="middle" x="35" y="-14.3" font-family="Times New Roman,serif" font-size="14.00">Integer</text>
</g>
<!-- node3&#45;&gt;node14 -->
<g id="edge3" class="edge"><title>node3&#45;&gt;node14</title>
<path fill="none" stroke="black" d="M70.307,-88.0092C63.9989,-75.6796 55.3526,-58.7801 48.1953,-44.7909"/>
<polygon fill="black" stroke="black" points="51.1959,-42.9712 43.5252,-35.6629 44.9641,-46.1596 51.1959,-42.9712"/>
<text text-anchor="middle" x="64.5" y="-58.3" font-family="Times New Roman,serif" font-size="14.00">0</text>
</g>
<!-- node15 -->
<g id="node5" class="node"><title>node15</title>
<ellipse fill="#fca790" stroke="black" cx="124" cy="-18" rx="35.6194" ry="18"/>
<text text-anchor="middle" x="124" y="-14.3" font-family="Times New Roman,serif" font-size="14.00">Integer</text>
</g>
<!-- node3&#45;&gt;node15 -->
<g id="edge4" class="edge"><title>node3&#45;&gt;node15</title>
<path fill="none" stroke="black" d="M87.6765,-88.4183C94.1508,-76.0451 103.118,-58.9069 110.523,-44.7555"/>
<polygon fill="black" stroke="black" points="113.815,-46.0138 115.35,-35.5308 107.613,-42.7684 113.815,-46.0138"/>
<text text-anchor="middle" x="108.5" y="-58.3" font-family="Times New Roman,serif" font-size="14.00">1</text>
</g>
</g>
</svg>
