<?xml version="1.0" encoding="UTF-8" standalone="no"?>
<!DOCTYPE svg PUBLIC "-//W3C//DTD SVG 1.1//EN"
 "http://www.w3.org/Graphics/SVG/1.1/DTD/svg11.dtd">
<!-- Generated by graphviz version 2.30.1 (20130214.1330)
 -->
<!-- Title: alist2 Pages: 1 -->
<svg width="425pt" height="318pt"
 viewBox="0.00 0.00 425.00 318.00" xmlns="http://www.w3.org/2000/svg" xmlns:xlink="http://www.w3.org/1999/xlink">
<g id="graph0" class="graph" transform="scale(1 1) rotate(0) translate(4 314)">
<title>alist2</title>
<polygon fill="white" stroke="white" points="-4,5 -4,-314 422,-314 422,5 -4,5"/>
<!-- node0 -->
<g id="node1" class="node"><title>node0</title>
<polygon fill="#fca790" stroke="none" points="280,-310 226,-310 226,-274 280,-274 280,-310"/>
<text text-anchor="middle" x="253" y="-288.3" font-family="Times New Roman,serif" font-size="14.00">alist2</text>
</g>
<!-- node1 -->
<g id="node2" class="node"><title>node1</title>
<polygon fill="#fca790" stroke="black" points="195,-182.5 195,-235.5 311,-235.5 311,-182.5 195,-182.5"/>
<text text-anchor="middle" x="253" y="-220.3" font-family="Times New Roman,serif" font-size="14.00">Class = ArrayList</text>
<text text-anchor="middle" x="253" y="-205.3" font-family="Times New Roman,serif" font-size="14.00">modCount = 2</text>
<text text-anchor="middle" x="253" y="-190.3" font-family="Times New Roman,serif" font-size="14.00">size = 2</text>
</g>
<!-- node0&#45;&gt;node1 -->
<g id="edge1" class="edge"><title>node0&#45;&gt;node1</title>
<path fill="none" stroke="black" d="M253,-273.822C253,-265.705 253,-255.693 253,-246.025"/>
<polygon fill="black" stroke="black" points="256.5,-245.775 253,-235.775 249.5,-245.775 256.5,-245.775"/>
</g>
<!-- node3 -->
<g id="node3" class="node"><title>node3</title>
<polygon fill="#fca790" stroke="black" points="89,-93 89,-129 417,-129 417,-93 89,-93"/>
<text text-anchor="middle" x="99" y="-107.3" font-family="Times New Roman,serif" font-size="14.00"> </text>
<polyline fill="none" stroke="black" points="109,-93 109,-129 "/>
<text text-anchor="middle" x="119" y="-107.3" font-family="Times New Roman,serif" font-size="14.00"> </text>
<polyline fill="none" stroke="black" points="129,-93 129,-129 "/>
<text text-anchor="middle" x="147" y="-107.3" font-family="Times New Roman,serif" font-size="14.00">null</text>
<polyline fill="none" stroke="black" points="165,-93 165,-129 "/>
<text text-anchor="middle" x="183" y="-107.3" font-family="Times New Roman,serif" font-size="14.00">null</text>
<polyline fill="none" stroke="black" points="201,-93 201,-129 "/>
<text text-anchor="middle" x="219" y="-107.3" font-family="Times New Roman,serif" font-size="14.00">null</text>
<polyline fill="none" stroke="black" points="237,-93 237,-129 "/>
<text text-anchor="middle" x="255" y="-107.3" font-family="Times New Roman,serif" font-size="14.00">null</text>
<polyline fill="none" stroke="black" points="273,-93 273,-129 "/>
<text text-anchor="middle" x="291" y="-107.3" font-family="Times New Roman,serif" font-size="14.00">null</text>
<polyline fill="none" stroke="black" points="309,-93 309,-129 "/>
<text text-anchor="middle" x="327" y="-107.3" font-family="Times New Roman,serif" font-size="14.00">null</text>
<polyline fill="none" stroke="black" points="345,-93 345,-129 "/>
<text text-anchor="middle" x="363" y="-107.3" font-family="Times New Roman,serif" font-size="14.00">null</text>
<polyline fill="none" stroke="black" points="381,-93 381,-129 "/>
<text text-anchor="middle" x="399" y="-107.3" font-family="Times New Roman,serif" font-size="14.00">null</text>
</g>
<!-- node1&#45;&gt;node3 -->
<g id="edge2" class="edge"><title>node1&#45;&gt;node3</title>
<path fill="none" stroke="black" d="M253,-182.274C253,-168.951 253,-152.687 253,-139.162"/>
<polygon fill="black" stroke="black" points="256.5,-139.011 253,-129.011 249.5,-139.011 256.5,-139.011"/>
<text text-anchor="middle" x="287" y="-152.3" font-family="Times New Roman,serif" font-size="14.00">elementData</text>
</g>
<!-- node14 -->
<g id="node4" class="node"><title>node14</title>
<polygon fill="#fca790" stroke="black" points="-0.5,-1 -0.5,-39 100.5,-39 100.5,-1 -0.5,-1"/>
<text text-anchor="middle" x="50" y="-23.8" font-family="Times New Roman,serif" font-size="14.00">Class = Integer</text>
<text text-anchor="middle" x="50" y="-8.8" font-family="Times New Roman,serif" font-size="14.00">value = 1</text>
</g>
<!-- node3&#45;&gt;node14 -->
<g id="edge3" class="edge"><title>node3:e0&#45;&gt;node14</title>
<path fill="none" stroke="black" d="M99,-92C99,-75.0457 89.4185,-59.2024 78.7294,-46.8027"/>
<polygon fill="black" stroke="black" points="81.008,-44.1135 71.6347,-39.1746 75.8823,-48.8808 81.008,-44.1135"/>
<text text-anchor="middle" x="97" y="-62.3" font-family="Times New Roman,serif" font-size="14.00"> </text>
</g>
<!-- node15 -->
<g id="node5" class="node"><title>node15</title>
<polygon fill="#fca790" stroke="black" points="118.5,-1 118.5,-39 219.5,-39 219.5,-1 118.5,-1"/>
<text text-anchor="middle" x="169" y="-23.8" font-family="Times New Roman,serif" font-size="14.00">Class = Integer</text>
<text text-anchor="middle" x="169" y="-8.8" font-family="Times New Roman,serif" font-size="14.00">value = 2</text>
</g>
<!-- node3&#45;&gt;node15 -->
<g id="edge4" class="edge"><title>node3:e1&#45;&gt;node15</title>
<path fill="none" stroke="black" d="M119,-92C119,-74.7707 128.964,-58.775 139.996,-46.3451"/>
<polygon fill="black" stroke="black" points="142.551,-48.7377 146.924,-39.0873 137.487,-43.9045 142.551,-48.7377"/>
<text text-anchor="middle" x="132" y="-62.3" font-family="Times New Roman,serif" font-size="14.00"> </text>
</g>
</g>
</svg>
