<?xml version="1.0" encoding="UTF-8" standalone="no"?>
<!DOCTYPE svg PUBLIC "-//W3C//DTD SVG 1.1//EN"
 "http://www.w3.org/Graphics/SVG/1.1/DTD/svg11.dtd">
<!-- Generated by graphviz version 2.30.1 (20130214.1330)
 -->
<!-- Title: alist Pages: 1 -->
<svg width="191pt" height="318pt"
 viewBox="0.00 0.00 191.00 318.00" xmlns="http://www.w3.org/2000/svg" xmlns:xlink="http://www.w3.org/1999/xlink">
<g id="graph0" class="graph" transform="scale(1 1) rotate(0) translate(4 314)">
<title>alist</title>
<polygon fill="white" stroke="white" points="-4,5 -4,-314 188,-314 188,5 -4,5"/>
<!-- node98 -->
<g id="node1" class="node"><title>node98</title>
<polygon fill="#fca790" stroke="none" points="118,-310 64,-310 64,-274 118,-274 118,-310"/>
<text text-anchor="middle" x="91" y="-288.3" font-family="Times New Roman,serif" font-size="14.00">alist</text>
</g>
<!-- node99 -->
<g id="node2" class="node"><title>node99</title>
<polygon fill="#fca790" stroke="black" points="33,-182.5 33,-235.5 149,-235.5 149,-182.5 33,-182.5"/>
<text text-anchor="middle" x="91" y="-220.3" font-family="Times New Roman,serif" font-size="14.00">Class = ArrayList</text>
<text text-anchor="middle" x="91" y="-205.3" font-family="Times New Roman,serif" font-size="14.00">modCount = 2</text>
<text text-anchor="middle" x="91" y="-190.3" font-family="Times New Roman,serif" font-size="14.00">size = 2</text>
</g>
<!-- node98&#45;&gt;node99 -->
<g id="edge1" class="edge"><title>node98&#45;&gt;node99</title>
<path fill="none" stroke="black" d="M91,-273.822C91,-265.705 91,-255.693 91,-246.025"/>
<polygon fill="black" stroke="black" points="94.5001,-245.775 91,-235.775 87.5001,-245.775 94.5001,-245.775"/>
</g>
<!-- node101 -->
<g id="node3" class="node"><title>node101</title>
<polygon fill="#fca790" stroke="black" points="64,-93 64,-129 118,-129 118,-93 64,-93"/>
<text text-anchor="middle" x="77.5" y="-107.3" font-family="Times New Roman,serif" font-size="14.00"> </text>
<polyline fill="none" stroke="black" points="91,-93 91,-129 "/>
<text text-anchor="middle" x="104.5" y="-107.3" font-family="Times New Roman,serif" font-size="14.00"> </text>
</g>
<!-- node99&#45;&gt;node101 -->
<g id="edge2" class="edge"><title>node99&#45;&gt;node101</title>
<path fill="none" stroke="black" d="M91,-182.274C91,-168.951 91,-152.687 91,-139.162"/>
<polygon fill="black" stroke="black" points="94.5001,-139.011 91,-129.011 87.5001,-139.011 94.5001,-139.011"/>
<text text-anchor="middle" x="125" y="-152.3" font-family="Times New Roman,serif" font-size="14.00">elementData</text>
</g>
<!-- node104 -->
<g id="node4" class="node"><title>node104</title>
<polygon fill="#fca790" stroke="black" points="-0.5,-1 -0.5,-39 82.5,-39 82.5,-1 -0.5,-1"/>
<text text-anchor="middle" x="41" y="-23.8" font-family="Times New Roman,serif" font-size="14.00">Class = Bar</text>
<text text-anchor="middle" x="41" y="-8.8" font-family="Times New Roman,serif" font-size="14.00">ID = 1</text>
</g>
<!-- node101&#45;&gt;node104 -->
<g id="edge3" class="edge"><title>node101:e0&#45;&gt;node104</title>
<path fill="none" stroke="black" d="M77,-92C77,-76.2081 69.8278,-60.3684 61.886,-47.6698"/>
<polygon fill="black" stroke="black" points="64.5501,-45.3601 56.0587,-39.024 58.7454,-49.2725 64.5501,-45.3601"/>
<text text-anchor="middle" x="76" y="-62.3" font-family="Times New Roman,serif" font-size="14.00"> </text>
</g>
<!-- node105 -->
<g id="node5" class="node"><title>node105</title>
<polygon fill="#fca790" stroke="black" points="100.5,-1 100.5,-39 183.5,-39 183.5,-1 100.5,-1"/>
<text text-anchor="middle" x="142" y="-23.8" font-family="Times New Roman,serif" font-size="14.00">Class = Bar</text>
<text text-anchor="middle" x="142" y="-8.8" font-family="Times New Roman,serif" font-size="14.00">ID = 2</text>
</g>
<!-- node101&#45;&gt;node105 -->
<g id="edge4" class="edge"><title>node101:e1&#45;&gt;node105</title>
<path fill="none" stroke="black" d="M105,-92C105,-76.0761 112.41,-60.1856 120.597,-47.4876"/>
<polygon fill="black" stroke="black" points="123.49,-49.4585 126.309,-39.2455 117.736,-45.4716 123.49,-49.4585"/>
<text text-anchor="middle" x="116" y="-62.3" font-family="Times New Roman,serif" font-size="14.00"> </text>
</g>
</g>
</svg>
