<?xml version="1.0" encoding="UTF-8" standalone="no"?>
<!DOCTYPE svg PUBLIC "-//W3C//DTD SVG 1.1//EN"
 "http://www.w3.org/Graphics/SVG/1.1/DTD/svg11.dtd">
<!-- Generated by graphviz version 2.30.1 (20130214.1330)
 -->
<!-- Title: hash&#45;map&#45;ops Pages: 1 -->
<svg width="629pt" height="440pt"
 viewBox="0.00 0.00 629.00 440.00" xmlns="http://www.w3.org/2000/svg" xmlns:xlink="http://www.w3.org/1999/xlink">
<g id="graph0" class="graph" transform="scale(1 1) rotate(0) translate(4 436)">
<title>hash&#45;map&#45;ops</title>
<polygon fill="white" stroke="white" points="-4,5 -4,-436 626,-436 626,5 -4,5"/>
<!-- node6946 -->
<g id="node1" class="node"><title>node6946</title>
<polygon fill="#fca790" stroke="none" points="233,-432 179,-432 179,-396 233,-396 233,-432"/>
<text text-anchor="middle" x="206" y="-410.3" font-family="Times New Roman,serif" font-size="14.00">x</text>
</g>
<!-- node6947 -->
<g id="node2" class="node"><title>node6947</title>
<polygon fill="#fca790" stroke="black" points="120.5,-274.5 120.5,-357.5 291.5,-357.5 291.5,-274.5 120.5,-274.5"/>
<text text-anchor="middle" x="206" y="-342.3" font-family="Times New Roman,serif" font-size="14.00">Class = PersistentHashMap</text>
<text text-anchor="middle" x="206" y="-327.3" font-family="Times New Roman,serif" font-size="14.00">_hash = &#45;1</text>
<text text-anchor="middle" x="206" y="-312.3" font-family="Times New Roman,serif" font-size="14.00">count = 2</text>
<text text-anchor="middle" x="206" y="-297.3" font-family="Times New Roman,serif" font-size="14.00">hasNull = false</text>
<text text-anchor="middle" x="206" y="-282.3" font-family="Times New Roman,serif" font-size="14.00">_hasheq = &#45;1</text>
</g>
<!-- node6946&#45;&gt;node6947 -->
<g id="edge1" class="edge"><title>node6946&#45;&gt;node6947</title>
<path fill="none" stroke="black" d="M206,-395.837C206,-387.828 206,-377.833 206,-367.678"/>
<polygon fill="black" stroke="black" points="209.5,-367.537 206,-357.537 202.5,-367.537 209.5,-367.537"/>
</g>
<!-- node6949 -->
<g id="node3" class="node"><title>node6949</title>
<polygon fill="#fca790" stroke="black" points="116.5,-183 116.5,-221 295.5,-221 295.5,-183 116.5,-183"/>
<text text-anchor="middle" x="206" y="-205.8" font-family="Times New Roman,serif" font-size="14.00">Class = BitmapIndexedNode</text>
<text text-anchor="middle" x="206" y="-190.8" font-family="Times New Roman,serif" font-size="14.00">bitmap = 6</text>
</g>
<!-- node6947&#45;&gt;node6949 -->
<g id="edge2" class="edge"><title>node6947&#45;&gt;node6949</title>
<path fill="none" stroke="black" d="M206,-274.249C206,-259.98 206,-244.282 206,-231.261"/>
<polygon fill="black" stroke="black" points="209.5,-231.043 206,-221.043 202.5,-231.043 209.5,-231.043"/>
<text text-anchor="middle" x="218" y="-244.3" font-family="Times New Roman,serif" font-size="14.00">root</text>
</g>
<!-- node6950 -->
<g id="node4" class="node"><title>node6950</title>
<polygon fill="#fca790" stroke="black" points="7,-93 7,-129 231,-129 231,-93 7,-93"/>
<text text-anchor="middle" x="17" y="-107.3" font-family="Times New Roman,serif" font-size="14.00"> </text>
<polyline fill="none" stroke="black" points="27,-93 27,-129 "/>
<text text-anchor="middle" x="37" y="-107.3" font-family="Times New Roman,serif" font-size="14.00"> </text>
<polyline fill="none" stroke="black" points="47,-93 47,-129 "/>
<text text-anchor="middle" x="57" y="-107.3" font-family="Times New Roman,serif" font-size="14.00"> </text>
<polyline fill="none" stroke="black" points="67,-93 67,-129 "/>
<text text-anchor="middle" x="77" y="-107.3" font-family="Times New Roman,serif" font-size="14.00"> </text>
<polyline fill="none" stroke="black" points="87,-93 87,-129 "/>
<text text-anchor="middle" x="105" y="-107.3" font-family="Times New Roman,serif" font-size="14.00">null</text>
<polyline fill="none" stroke="black" points="123,-93 123,-129 "/>
<text text-anchor="middle" x="141" y="-107.3" font-family="Times New Roman,serif" font-size="14.00">null</text>
<polyline fill="none" stroke="black" points="159,-93 159,-129 "/>
<text text-anchor="middle" x="177" y="-107.3" font-family="Times New Roman,serif" font-size="14.00">null</text>
<polyline fill="none" stroke="black" points="195,-93 195,-129 "/>
<text text-anchor="middle" x="213" y="-107.3" font-family="Times New Roman,serif" font-size="14.00">null</text>
</g>
<!-- node6949&#45;&gt;node6950 -->
<g id="edge3" class="edge"><title>node6949&#45;&gt;node6950</title>
<path fill="none" stroke="black" d="M188.394,-182.99C175.287,-169.581 157.248,-151.127 142.848,-136.396"/>
<polygon fill="black" stroke="black" points="145.187,-133.782 135.694,-129.078 140.181,-138.675 145.187,-133.782"/>
<text text-anchor="middle" x="182" y="-152.3" font-family="Times New Roman,serif" font-size="14.00">array</text>
</g>
<!-- node6959 -->
<g id="node5" class="node"><title>node6959</title>
<polygon fill="#fca790" stroke="black" points="249.5,-93 249.5,-129 410.5,-129 410.5,-93 249.5,-93"/>
<text text-anchor="middle" x="330" y="-107.3" font-family="Times New Roman,serif" font-size="14.00">Class = AtomicReference</text>
</g>
<!-- node6949&#45;&gt;node6959 -->
<g id="edge4" class="edge"><title>node6949&#45;&gt;node6959</title>
<path fill="none" stroke="black" d="M231.093,-182.99C250.375,-169.15 277.144,-149.937 297.971,-134.989"/>
<polygon fill="black" stroke="black" points="300.123,-137.752 306.206,-129.078 296.041,-132.065 300.123,-137.752"/>
<text text-anchor="middle" x="290.5" y="-152.3" font-family="Times New Roman,serif" font-size="14.00">edit</text>
</g>
<!-- node6960 -->
<g id="node6" class="node"><title>node6960</title>
<polygon fill="#fca790" stroke="black" points="0,-1 0,-39 86,-39 86,-1 0,-1"/>
<text text-anchor="middle" x="43" y="-23.8" font-family="Times New Roman,serif" font-size="14.00">Class = Foo</text>
<text text-anchor="middle" x="43" y="-8.8" font-family="Times New Roman,serif" font-size="14.00">ID = 1</text>
</g>
<!-- node6950&#45;&gt;node6960 -->
<g id="edge5" class="edge"><title>node6950:e0&#45;&gt;node6960</title>
<path fill="none" stroke="black" d="M17,-92C17,-76.9369 22.2239,-61.1122 27.9887,-48.2352"/>
<polygon fill="black" stroke="black" points="31.239,-49.5524 32.4248,-39.0241 24.9323,-46.515 31.239,-49.5524"/>
<text text-anchor="middle" x="26" y="-62.3" font-family="Times New Roman,serif" font-size="14.00"> </text>
</g>
<!-- node6961 -->
<g id="node7" class="node"><title>node6961</title>
<polygon fill="#fca790" stroke="black" points="116.5,-1 116.5,-39 199.5,-39 199.5,-1 116.5,-1"/>
<text text-anchor="middle" x="158" y="-23.8" font-family="Times New Roman,serif" font-size="14.00">Class = Bar</text>
<text text-anchor="middle" x="158" y="-8.8" font-family="Times New Roman,serif" font-size="14.00">ID = 1</text>
</g>
<!-- node6950&#45;&gt;node6961 -->
<g id="edge6" class="edge"><title>node6950:e1&#45;&gt;node6961</title>
<path fill="none" stroke="black" d="M37,-92C37,-74.8197 73.7452,-55.0133 106.737,-40.6925"/>
<polygon fill="black" stroke="black" points="108.514,-43.741 116.359,-36.6197 105.785,-37.2948 108.514,-43.741"/>
<text text-anchor="middle" x="72" y="-62.3" font-family="Times New Roman,serif" font-size="14.00"> </text>
</g>
<!-- node6962 -->
<g id="node8" class="node"><title>node6962</title>
<polygon fill="#fca790" stroke="black" points="224,-1 224,-39 310,-39 310,-1 224,-1"/>
<text text-anchor="middle" x="267" y="-23.8" font-family="Times New Roman,serif" font-size="14.00">Class = Foo</text>
<text text-anchor="middle" x="267" y="-8.8" font-family="Times New Roman,serif" font-size="14.00">ID = 2</text>
</g>
<!-- node6950&#45;&gt;node6962 -->
<g id="edge7" class="edge"><title>node6950:e2&#45;&gt;node6962</title>
<path fill="none" stroke="black" d="M57,-92C57,-63.4957 157.269,-83.8955 184,-74 202.496,-67.153 221.177,-55.7146 236.12,-45.2131"/>
<polygon fill="black" stroke="black" points="238.407,-47.8782 244.457,-39.1801 234.303,-42.2074 238.407,-47.8782"/>
<text text-anchor="middle" x="218" y="-62.3" font-family="Times New Roman,serif" font-size="14.00"> </text>
</g>
<!-- node6963 -->
<g id="node9" class="node"><title>node6963</title>
<polygon fill="#fca790" stroke="black" points="331.5,-1 331.5,-39 414.5,-39 414.5,-1 331.5,-1"/>
<text text-anchor="middle" x="373" y="-23.8" font-family="Times New Roman,serif" font-size="14.00">Class = Bar</text>
<text text-anchor="middle" x="373" y="-8.8" font-family="Times New Roman,serif" font-size="14.00">ID = 2</text>
</g>
<!-- node6950&#45;&gt;node6963 -->
<g id="edge8" class="edge"><title>node6950:e3&#45;&gt;node6963</title>
<path fill="none" stroke="black" d="M77,-92C77,-72.2319 234.897,-79.0853 254,-74 280.581,-66.9239 308.765,-54.6084 331.03,-43.6292"/>
<polygon fill="black" stroke="black" points="332.825,-46.644 340.187,-39.0248 329.681,-40.39 332.825,-46.644"/>
<text text-anchor="middle" x="300" y="-62.3" font-family="Times New Roman,serif" font-size="14.00"> </text>
</g>
<!-- node6971 -->
<g id="node10" class="node"><title>node6971</title>
<polygon fill="#eefc90" stroke="none" points="535,-432 443,-432 443,-396 535,-396 535,-432"/>
<text text-anchor="middle" x="489" y="-410.3" font-family="Times New Roman,serif" font-size="14.00">after assoc ...</text>
</g>
<!-- node6972 -->
<g id="node11" class="node"><title>node6972</title>
<polygon fill="#eefc90" stroke="black" points="403.5,-274.5 403.5,-357.5 574.5,-357.5 574.5,-274.5 403.5,-274.5"/>
<text text-anchor="middle" x="489" y="-342.3" font-family="Times New Roman,serif" font-size="14.00">Class = PersistentHashMap</text>
<text text-anchor="middle" x="489" y="-327.3" font-family="Times New Roman,serif" font-size="14.00">_hash = &#45;1</text>
<text text-anchor="middle" x="489" y="-312.3" font-family="Times New Roman,serif" font-size="14.00">count = 3</text>
<text text-anchor="middle" x="489" y="-297.3" font-family="Times New Roman,serif" font-size="14.00">hasNull = false</text>
<text text-anchor="middle" x="489" y="-282.3" font-family="Times New Roman,serif" font-size="14.00">_hasheq = &#45;1</text>
</g>
<!-- node6971&#45;&gt;node6972 -->
<g id="edge9" class="edge"><title>node6971&#45;&gt;node6972</title>
<path fill="none" stroke="black" d="M489,-395.837C489,-387.828 489,-377.833 489,-367.678"/>
<polygon fill="black" stroke="black" points="492.5,-367.537 489,-357.537 485.5,-367.537 492.5,-367.537"/>
</g>
<!-- node6974 -->
<g id="node12" class="node"><title>node6974</title>
<polygon fill="#eefc90" stroke="black" points="399.5,-183 399.5,-221 578.5,-221 578.5,-183 399.5,-183"/>
<text text-anchor="middle" x="489" y="-205.8" font-family="Times New Roman,serif" font-size="14.00">Class = BitmapIndexedNode</text>
<text text-anchor="middle" x="489" y="-190.8" font-family="Times New Roman,serif" font-size="14.00">bitmap = 14</text>
</g>
<!-- node6972&#45;&gt;node6974 -->
<g id="edge10" class="edge"><title>node6972&#45;&gt;node6974</title>
<path fill="none" stroke="black" d="M489,-274.249C489,-259.98 489,-244.282 489,-231.261"/>
<polygon fill="black" stroke="black" points="492.5,-231.043 489,-221.043 485.5,-231.043 492.5,-231.043"/>
<text text-anchor="middle" x="501" y="-244.3" font-family="Times New Roman,serif" font-size="14.00">root</text>
</g>
<!-- node6975 -->
<g id="node13" class="node"><title>node6975</title>
<polygon fill="#eefc90" stroke="black" points="429,-93 429,-129 549,-129 549,-93 429,-93"/>
<text text-anchor="middle" x="439" y="-107.3" font-family="Times New Roman,serif" font-size="14.00"> </text>
<polyline fill="none" stroke="black" points="449,-93 449,-129 "/>
<text text-anchor="middle" x="459" y="-107.3" font-family="Times New Roman,serif" font-size="14.00"> </text>
<polyline fill="none" stroke="black" points="469,-93 469,-129 "/>
<text text-anchor="middle" x="479" y="-107.3" font-family="Times New Roman,serif" font-size="14.00"> </text>
<polyline fill="none" stroke="black" points="489,-93 489,-129 "/>
<text text-anchor="middle" x="499" y="-107.3" font-family="Times New Roman,serif" font-size="14.00"> </text>
<polyline fill="none" stroke="black" points="509,-93 509,-129 "/>
<text text-anchor="middle" x="519" y="-107.3" font-family="Times New Roman,serif" font-size="14.00"> </text>
<polyline fill="none" stroke="black" points="529,-93 529,-129 "/>
<text text-anchor="middle" x="539" y="-107.3" font-family="Times New Roman,serif" font-size="14.00"> </text>
</g>
<!-- node6974&#45;&gt;node6975 -->
<g id="edge11" class="edge"><title>node6974&#45;&gt;node6975</title>
<path fill="none" stroke="black" d="M489,-182.99C489,-170.442 489,-153.477 489,-139.278"/>
<polygon fill="black" stroke="black" points="492.5,-139.078 489,-129.078 485.5,-139.078 492.5,-139.078"/>
<text text-anchor="middle" x="503" y="-152.3" font-family="Times New Roman,serif" font-size="14.00">array</text>
</g>
<!-- node6975&#45;&gt;node6960 -->
<g id="edge12" class="edge"><title>node6975:e0&#45;&gt;node6960</title>
<path fill="none" stroke="black" d="M428,-111C418.656,-111 426.701,-97.2923 419,-92 375.47,-62.0845 233.545,-85.5286 182,-74 150.686,-66.9963 117.027,-54.3072 90.675,-43.1009"/>
<polygon fill="black" stroke="black" points="91.8826,-39.8099 81.3148,-39.0526 89.1038,-46.2347 91.8826,-39.8099"/>
<text text-anchor="middle" x="184" y="-62.3" font-family="Times New Roman,serif" font-size="14.00"> </text>
</g>
<!-- node6975&#45;&gt;node6961 -->
<g id="edge13" class="edge"><title>node6975:e1&#45;&gt;node6961</title>
<path fill="none" stroke="black" d="M459,-92C459,-68.9132 274.035,-80.8875 252,-74 238.32,-69.7241 236.473,-65.0601 224,-58 215.941,-53.4383 207.315,-48.583 199.045,-43.9418"/>
<polygon fill="black" stroke="black" points="200.691,-40.8516 190.256,-39.0136 197.267,-46.9573 200.691,-40.8516"/>
<text text-anchor="middle" x="254" y="-62.3" font-family="Times New Roman,serif" font-size="14.00"> </text>
</g>
<!-- node6975&#45;&gt;node6962 -->
<g id="edge14" class="edge"><title>node6975:e2&#45;&gt;node6962</title>
<path fill="none" stroke="black" d="M479,-92C479,-82.8118 330.704,-42.9446 322,-40 321.282,-39.7572 320.559,-39.5123 319.832,-39.2656"/>
<polygon fill="black" stroke="black" points="320.811,-35.9014 310.216,-35.9876 318.552,-42.527 320.811,-35.9014"/>
<text text-anchor="middle" x="436" y="-62.3" font-family="Times New Roman,serif" font-size="14.00"> </text>
</g>
<!-- node6975&#45;&gt;node6963 -->
<g id="edge15" class="edge"><title>node6975:e3&#45;&gt;node6963</title>
<path fill="none" stroke="black" d="M499,-92C499,-82.7515 457.265,-60.6313 421.835,-43.5187"/>
<polygon fill="black" stroke="black" points="423.053,-40.2217 412.521,-39.0638 420.032,-46.5364 423.053,-40.2217"/>
<text text-anchor="middle" x="479" y="-62.3" font-family="Times New Roman,serif" font-size="14.00"> </text>
</g>
<!-- node6982 -->
<g id="node14" class="node"><title>node6982</title>
<polygon fill="#eefc90" stroke="black" points="434,-1 434,-39 520,-39 520,-1 434,-1"/>
<text text-anchor="middle" x="477" y="-23.8" font-family="Times New Roman,serif" font-size="14.00">Class = Foo</text>
<text text-anchor="middle" x="477" y="-8.8" font-family="Times New Roman,serif" font-size="14.00">ID = 3</text>
</g>
<!-- node6975&#45;&gt;node6982 -->
<g id="edge16" class="edge"><title>node6975:e4&#45;&gt;node6982</title>
<path fill="none" stroke="black" d="M519,-92C519,-75.7092 510.708,-59.8777 501.492,-47.3137"/>
<polygon fill="black" stroke="black" points="504.003,-44.846 495.056,-39.1722 498.512,-49.1874 504.003,-44.846"/>
<text text-anchor="middle" x="517" y="-62.3" font-family="Times New Roman,serif" font-size="14.00"> </text>
</g>
<!-- node6983 -->
<g id="node15" class="node"><title>node6983</title>
<polygon fill="#eefc90" stroke="black" points="538.5,-1 538.5,-39 621.5,-39 621.5,-1 538.5,-1"/>
<text text-anchor="middle" x="580" y="-23.8" font-family="Times New Roman,serif" font-size="14.00">Class = Bar</text>
<text text-anchor="middle" x="580" y="-8.8" font-family="Times New Roman,serif" font-size="14.00">ID = 3</text>
</g>
<!-- node6975&#45;&gt;node6983 -->
<g id="edge17" class="edge"><title>node6975:e5&#45;&gt;node6983</title>
<path fill="none" stroke="black" d="M539,-92C539,-75.8088 547.095,-59.9885 556.091,-47.4061"/>
<polygon fill="black" stroke="black" points="559.045,-49.3059 562.374,-39.2477 553.5,-45.0346 559.045,-49.3059"/>
<text text-anchor="middle" x="550" y="-62.3" font-family="Times New Roman,serif" font-size="14.00"> </text>
</g>
</g>
</svg>
