<?xml version="1.0" encoding="UTF-8" standalone="no"?>
<!DOCTYPE svg PUBLIC "-//W3C//DTD SVG 1.1//EN"
 "http://www.w3.org/Graphics/SVG/1.1/DTD/svg11.dtd">
<!-- Generated by graphviz version 2.30.1 (20130214.1330)
 -->
<!-- Title: hmap&#45;ops Pages: 1 -->
<svg width="710pt" height="500pt"
 viewBox="0.00 0.00 710.00 500.00" xmlns="http://www.w3.org/2000/svg" xmlns:xlink="http://www.w3.org/1999/xlink">
<g id="graph0" class="graph" transform="scale(1 1) rotate(0) translate(4 496)">
<title>hmap&#45;ops</title>
<polygon fill="white" stroke="white" points="-4,5 -4,-496 707,-496 707,5 -4,5"/>
<!-- node1466 -->
<g id="node1" class="node"><title>node1466</title>
<polygon fill="#fca790" stroke="none" points="236,-492 182,-492 182,-456 236,-456 236,-492"/>
<text text-anchor="middle" x="209" y="-470.3" font-family="Times New Roman,serif" font-size="14.00">hmap</text>
</g>
<!-- node1467 -->
<g id="node2" class="node"><title>node1467</title>
<polygon fill="#fca790" stroke="black" points="139,-364.5 139,-417.5 279,-417.5 279,-364.5 139,-364.5"/>
<text text-anchor="middle" x="209" y="-402.3" font-family="Times New Roman,serif" font-size="14.00">Class = HashTrieMap</text>
<text text-anchor="middle" x="209" y="-387.3" font-family="Times New Roman,serif" font-size="14.00">size0 = 2</text>
<text text-anchor="middle" x="209" y="-372.3" font-family="Times New Roman,serif" font-size="14.00">bitmap = 16512</text>
</g>
<!-- node1466&#45;&gt;node1467 -->
<g id="edge1" class="edge"><title>node1466&#45;&gt;node1467</title>
<path fill="none" stroke="black" d="M209,-455.822C209,-447.705 209,-437.693 209,-428.025"/>
<polygon fill="black" stroke="black" points="212.5,-427.775 209,-417.775 205.5,-427.775 212.5,-427.775"/>
</g>
<!-- node1469 -->
<g id="node3" class="node"><title>node1469</title>
<polygon fill="#fca790" stroke="black" points="193,-275 193,-311 247,-311 247,-275 193,-275"/>
<text text-anchor="middle" x="206.5" y="-289.3" font-family="Times New Roman,serif" font-size="14.00"> </text>
<polyline fill="none" stroke="black" points="220,-275 220,-311 "/>
<text text-anchor="middle" x="233.5" y="-289.3" font-family="Times New Roman,serif" font-size="14.00"> </text>
</g>
<!-- node1467&#45;&gt;node1469 -->
<g id="edge2" class="edge"><title>node1467&#45;&gt;node1469</title>
<path fill="none" stroke="black" d="M211.948,-364.274C213.474,-350.951 215.338,-334.687 216.888,-321.162"/>
<polygon fill="black" stroke="black" points="220.39,-321.344 218.051,-311.011 213.435,-320.547 220.39,-321.344"/>
<text text-anchor="middle" x="232" y="-334.3" font-family="Times New Roman,serif" font-size="14.00">elems</text>
</g>
<!-- node1472 -->
<g id="node4" class="node"><title>node1472</title>
<polygon fill="#fca790" stroke="black" points="144,-183 144,-221 268,-221 268,-183 144,-183"/>
<text text-anchor="middle" x="206" y="-205.8" font-family="Times New Roman,serif" font-size="14.00">Class = HashMap1</text>
<text text-anchor="middle" x="206" y="-190.8" font-family="Times New Roman,serif" font-size="14.00">hash = &#45;8139033</text>
</g>
<!-- node1469&#45;&gt;node1472 -->
<g id="edge13" class="edge"><title>node1469:e0&#45;&gt;node1472</title>
<path fill="none" stroke="black" d="M206,-274C206,-259.94 206,-244.314 206,-231.309"/>
<polygon fill="black" stroke="black" points="209.5,-231.093 206,-221.093 202.5,-231.093 209.5,-231.093"/>
<text text-anchor="middle" x="208" y="-244.3" font-family="Times New Roman,serif" font-size="14.00"> </text>
</g>
<!-- node1473 -->
<g id="node5" class="node"><title>node1473</title>
<polygon fill="#fca790" stroke="black" points="298,-183 298,-221 422,-221 422,-183 298,-183"/>
<text text-anchor="middle" x="360" y="-205.8" font-family="Times New Roman,serif" font-size="14.00">Class = HashMap1</text>
<text text-anchor="middle" x="360" y="-190.8" font-family="Times New Roman,serif" font-size="14.00">hash = &#45;8147762</text>
</g>
<!-- node1469&#45;&gt;node1473 -->
<g id="edge14" class="edge"><title>node1469:e1&#45;&gt;node1473</title>
<path fill="none" stroke="black" d="M234,-274C234,-257.374 267.717,-238.95 300.268,-225.037"/>
<polygon fill="black" stroke="black" points="301.951,-228.128 309.839,-221.055 299.262,-221.665 301.951,-228.128"/>
<text text-anchor="middle" x="270" y="-244.3" font-family="Times New Roman,serif" font-size="14.00"> </text>
</g>
<!-- node1474 -->
<g id="node6" class="node"><title>node1474</title>
<polygon fill="#fca790" stroke="black" points="0,-1 0,-39 86,-39 86,-1 0,-1"/>
<text text-anchor="middle" x="43" y="-23.8" font-family="Times New Roman,serif" font-size="14.00">Class = Foo</text>
<text text-anchor="middle" x="43" y="-8.8" font-family="Times New Roman,serif" font-size="14.00">ID = 1</text>
</g>
<!-- node1472&#45;&gt;node1474 -->
<g id="edge3" class="edge"><title>node1472&#45;&gt;node1474</title>
<path fill="none" stroke="black" d="M143.818,-191.883C106.622,-182.88 62.2037,-165.079 39,-130 23.2562,-106.199 27.4343,-72.6479 33.5352,-49.0737"/>
<polygon fill="black" stroke="black" points="36.9379,-49.9037 36.3117,-39.3274 30.2058,-47.9858 36.9379,-49.9037"/>
<text text-anchor="middle" x="49" y="-107.3" font-family="Times New Roman,serif" font-size="14.00">key</text>
</g>
<!-- node1475 -->
<g id="node7" class="node"><title>node1475</title>
<polygon fill="#fca790" stroke="black" points="129.5,-1 129.5,-39 212.5,-39 212.5,-1 129.5,-1"/>
<text text-anchor="middle" x="171" y="-23.8" font-family="Times New Roman,serif" font-size="14.00">Class = Bar</text>
<text text-anchor="middle" x="171" y="-8.8" font-family="Times New Roman,serif" font-size="14.00">ID = 1</text>
</g>
<!-- node1472&#45;&gt;node1475 -->
<g id="edge4" class="edge"><title>node1472&#45;&gt;node1475</title>
<path fill="none" stroke="black" d="M202.451,-182.75C196.33,-151.269 183.746,-86.5502 176.488,-49.2249"/>
<polygon fill="black" stroke="black" points="179.85,-48.1787 174.506,-39.0306 172.979,-49.5148 179.85,-48.1787"/>
<text text-anchor="middle" x="206.5" y="-107.3" font-family="Times New Roman,serif" font-size="14.00">value</text>
</g>
<!-- node1476 -->
<g id="node8" class="node"><title>node1476</title>
<polygon fill="#fca790" stroke="black" points="68,-93 68,-129 170,-129 170,-93 68,-93"/>
<text text-anchor="middle" x="119" y="-107.3" font-family="Times New Roman,serif" font-size="14.00">Class = Tuple2</text>
</g>
<!-- node1472&#45;&gt;node1476 -->
<g id="edge5" class="edge"><title>node1472&#45;&gt;node1476</title>
<path fill="none" stroke="black" d="M188.394,-182.99C175.287,-169.581 157.248,-151.127 142.848,-136.396"/>
<polygon fill="black" stroke="black" points="145.187,-133.782 135.694,-129.078 140.181,-138.675 145.187,-133.782"/>
<text text-anchor="middle" x="175" y="-152.3" font-family="Times New Roman,serif" font-size="14.00">kv</text>
</g>
<!-- node1477 -->
<g id="node9" class="node"><title>node1477</title>
<polygon fill="#fca790" stroke="black" points="244,-1 244,-39 330,-39 330,-1 244,-1"/>
<text text-anchor="middle" x="287" y="-23.8" font-family="Times New Roman,serif" font-size="14.00">Class = Foo</text>
<text text-anchor="middle" x="287" y="-8.8" font-family="Times New Roman,serif" font-size="14.00">ID = 2</text>
</g>
<!-- node1473&#45;&gt;node1477 -->
<g id="edge6" class="edge"><title>node1473&#45;&gt;node1477</title>
<path fill="none" stroke="black" d="M328.948,-182.9C311.006,-170.535 290.05,-152.357 280,-130 268.471,-104.353 272.647,-71.8447 278.202,-49.0297"/>
<polygon fill="black" stroke="black" points="281.605,-49.8529 280.8,-39.2887 274.841,-48.049 281.605,-49.8529"/>
<text text-anchor="middle" x="290" y="-107.3" font-family="Times New Roman,serif" font-size="14.00">key</text>
</g>
<!-- node1478 -->
<g id="node10" class="node"><title>node1478</title>
<polygon fill="#fca790" stroke="black" points="367.5,-1 367.5,-39 450.5,-39 450.5,-1 367.5,-1"/>
<text text-anchor="middle" x="409" y="-23.8" font-family="Times New Roman,serif" font-size="14.00">Class = Bar</text>
<text text-anchor="middle" x="409" y="-8.8" font-family="Times New Roman,serif" font-size="14.00">ID = 2</text>
</g>
<!-- node1473&#45;&gt;node1478 -->
<g id="edge7" class="edge"><title>node1473&#45;&gt;node1478</title>
<path fill="none" stroke="black" d="M381.613,-182.982C395.509,-169.912 412.346,-150.915 420,-130 429.636,-103.669 424.526,-71.517 418.458,-48.9808"/>
<polygon fill="black" stroke="black" points="421.812,-47.9787 415.652,-39.3583 415.092,-49.9383 421.812,-47.9787"/>
<text text-anchor="middle" x="440.5" y="-107.3" font-family="Times New Roman,serif" font-size="14.00">value</text>
</g>
<!-- node1479 -->
<g id="node11" class="node"><title>node1479</title>
<polygon fill="#fca790" stroke="black" points="309,-93 309,-129 411,-129 411,-93 309,-93"/>
<text text-anchor="middle" x="360" y="-107.3" font-family="Times New Roman,serif" font-size="14.00">Class = Tuple2</text>
</g>
<!-- node1473&#45;&gt;node1479 -->
<g id="edge8" class="edge"><title>node1473&#45;&gt;node1479</title>
<path fill="none" stroke="black" d="M360,-182.99C360,-170.442 360,-153.477 360,-139.278"/>
<polygon fill="black" stroke="black" points="363.5,-139.078 360,-129.078 356.5,-139.078 363.5,-139.078"/>
<text text-anchor="middle" x="367" y="-152.3" font-family="Times New Roman,serif" font-size="14.00">kv</text>
</g>
<!-- node1476&#45;&gt;node1474 -->
<g id="edge9" class="edge"><title>node1476&#45;&gt;node1474</title>
<path fill="none" stroke="black" d="M104.346,-92.8399C93.2097,-79.7982 77.7051,-61.6414 65.0697,-46.8448"/>
<polygon fill="black" stroke="black" points="67.5467,-44.3557 58.3912,-39.0239 62.2234,-48.9014 67.5467,-44.3557"/>
<text text-anchor="middle" x="95.5" y="-62.3" font-family="Times New Roman,serif" font-size="14.00">_1</text>
</g>
<!-- node1476&#45;&gt;node1475 -->
<g id="edge10" class="edge"><title>node1476&#45;&gt;node1475</title>
<path fill="none" stroke="black" d="M129.026,-92.8399C136.505,-80.0397 146.863,-62.3122 155.417,-47.6702"/>
<polygon fill="black" stroke="black" points="158.446,-49.4238 160.469,-39.0239 152.402,-45.8925 158.446,-49.4238"/>
<text text-anchor="middle" x="156.5" y="-62.3" font-family="Times New Roman,serif" font-size="14.00">_2</text>
</g>
<!-- node1479&#45;&gt;node1477 -->
<g id="edge11" class="edge"><title>node1479&#45;&gt;node1477</title>
<path fill="none" stroke="black" d="M345.925,-92.8399C335.228,-79.7982 320.335,-61.6414 308.199,-46.8448"/>
<polygon fill="black" stroke="black" points="310.832,-44.5361 301.784,-39.0239 305.419,-48.9754 310.832,-44.5361"/>
<text text-anchor="middle" x="338.5" y="-62.3" font-family="Times New Roman,serif" font-size="14.00">_1</text>
</g>
<!-- node1479&#45;&gt;node1478 -->
<g id="edge12" class="edge"><title>node1479&#45;&gt;node1478</title>
<path fill="none" stroke="black" d="M369.448,-92.8399C376.428,-80.1605 386.071,-62.6462 394.088,-48.0854"/>
<polygon fill="black" stroke="black" points="397.32,-49.472 399.077,-39.0239 391.188,-46.0959 397.32,-49.472"/>
<text text-anchor="middle" x="395.5" y="-62.3" font-family="Times New Roman,serif" font-size="14.00">_2</text>
</g>
<!-- node1493 -->
<g id="node12" class="node"><title>node1493</title>
<polygon fill="#eefc90" stroke="none" points="411.25,-492 322.75,-492 322.75,-456 411.25,-456 411.25,-492"/>
<text text-anchor="middle" x="367" y="-470.3" font-family="Times New Roman,serif" font-size="14.00">hmap_added</text>
</g>
<!-- node1494 -->
<g id="node13" class="node"><title>node1494</title>
<polygon fill="#eefc90" stroke="black" points="297,-364.5 297,-417.5 437,-417.5 437,-364.5 297,-364.5"/>
<text text-anchor="middle" x="367" y="-402.3" font-family="Times New Roman,serif" font-size="14.00">Class = HashTrieMap</text>
<text text-anchor="middle" x="367" y="-387.3" font-family="Times New Roman,serif" font-size="14.00">size0 = 3</text>
<text text-anchor="middle" x="367" y="-372.3" font-family="Times New Roman,serif" font-size="14.00">bitmap = 1065088</text>
</g>
<!-- node1493&#45;&gt;node1494 -->
<g id="edge15" class="edge"><title>node1493&#45;&gt;node1494</title>
<path fill="none" stroke="black" d="M367,-455.822C367,-447.705 367,-437.693 367,-428.025"/>
<polygon fill="black" stroke="black" points="370.5,-427.775 367,-417.775 363.5,-427.775 370.5,-427.775"/>
</g>
<!-- node1496 -->
<g id="node14" class="node"><title>node1496</title>
<polygon fill="#eefc90" stroke="black" points="332,-275 332,-311 392,-311 392,-275 332,-275"/>
<text text-anchor="middle" x="342" y="-289.3" font-family="Times New Roman,serif" font-size="14.00"> </text>
<polyline fill="none" stroke="black" points="352,-275 352,-311 "/>
<text text-anchor="middle" x="362" y="-289.3" font-family="Times New Roman,serif" font-size="14.00"> </text>
<polyline fill="none" stroke="black" points="372,-275 372,-311 "/>
<text text-anchor="middle" x="382" y="-289.3" font-family="Times New Roman,serif" font-size="14.00"> </text>
</g>
<!-- node1494&#45;&gt;node1496 -->
<g id="edge16" class="edge"><title>node1494&#45;&gt;node1496</title>
<path fill="none" stroke="black" d="M365.66,-364.274C364.966,-350.951 364.119,-334.687 363.415,-321.162"/>
<polygon fill="black" stroke="black" points="366.901,-320.815 362.886,-311.011 359.911,-321.179 366.901,-320.815"/>
<text text-anchor="middle" x="381" y="-334.3" font-family="Times New Roman,serif" font-size="14.00">elems</text>
</g>
<!-- node1496&#45;&gt;node1472 -->
<g id="edge22" class="edge"><title>node1496:e0&#45;&gt;node1472</title>
<path fill="none" stroke="black" d="M342,-274C342,-256.532 306.296,-238.325 271.476,-224.722"/>
<polygon fill="black" stroke="black" points="272.3,-221.291 261.709,-221.011 269.814,-227.834 272.3,-221.291"/>
<text text-anchor="middle" x="333" y="-244.3" font-family="Times New Roman,serif" font-size="14.00"> </text>
</g>
<!-- node1496&#45;&gt;node1473 -->
<g id="edge23" class="edge"><title>node1496:e1&#45;&gt;node1473</title>
<path fill="none" stroke="black" d="M362,-274C362,-259.935 361.603,-244.308 361.163,-231.304"/>
<polygon fill="black" stroke="black" points="364.652,-230.955 360.79,-221.089 357.657,-231.21 364.652,-230.955"/>
<text text-anchor="middle" x="364" y="-244.3" font-family="Times New Roman,serif" font-size="14.00"> </text>
</g>
<!-- node1500 -->
<g id="node15" class="node"><title>node1500</title>
<polygon fill="#eefc90" stroke="black" points="481,-183 481,-221 605,-221 605,-183 481,-183"/>
<text text-anchor="middle" x="543" y="-205.8" font-family="Times New Roman,serif" font-size="14.00">Class = HashMap1</text>
<text text-anchor="middle" x="543" y="-190.8" font-family="Times New Roman,serif" font-size="14.00">hash = &#45;8156460</text>
</g>
<!-- node1496&#45;&gt;node1500 -->
<g id="edge24" class="edge"><title>node1496:e2&#45;&gt;node1500</title>
<path fill="none" stroke="black" d="M393,-293C443.523,-293 491.726,-254.994 519.289,-228.377"/>
<polygon fill="black" stroke="black" points="521.873,-230.744 526.501,-221.213 516.939,-225.778 521.873,-230.744"/>
<text text-anchor="middle" x="506" y="-244.3" font-family="Times New Roman,serif" font-size="14.00"> </text>
</g>
<!-- node1501 -->
<g id="node16" class="node"><title>node1501</title>
<polygon fill="#eefc90" stroke="black" points="488,-1 488,-39 574,-39 574,-1 488,-1"/>
<text text-anchor="middle" x="531" y="-23.8" font-family="Times New Roman,serif" font-size="14.00">Class = Foo</text>
<text text-anchor="middle" x="531" y="-8.8" font-family="Times New Roman,serif" font-size="14.00">ID = 3</text>
</g>
<!-- node1500&#45;&gt;node1501 -->
<g id="edge17" class="edge"><title>node1500&#45;&gt;node1501</title>
<path fill="none" stroke="black" d="M535.758,-182.965C530.487,-168.822 523.801,-148.501 521,-130 516.869,-102.712 520.644,-71.304 524.684,-49.2335"/>
<polygon fill="black" stroke="black" points="528.16,-49.6954 526.655,-39.208 521.291,-48.345 528.16,-49.6954"/>
<text text-anchor="middle" x="531" y="-107.3" font-family="Times New Roman,serif" font-size="14.00">key</text>
</g>
<!-- node1502 -->
<g id="node17" class="node"><title>node1502</title>
<polygon fill="#eefc90" stroke="black" points="619.5,-1 619.5,-39 702.5,-39 702.5,-1 619.5,-1"/>
<text text-anchor="middle" x="661" y="-23.8" font-family="Times New Roman,serif" font-size="14.00">Class = Bar</text>
<text text-anchor="middle" x="661" y="-8.8" font-family="Times New Roman,serif" font-size="14.00">ID = 3</text>
</g>
<!-- node1500&#45;&gt;node1502 -->
<g id="edge18" class="edge"><title>node1500&#45;&gt;node1502</title>
<path fill="none" stroke="black" d="M596.489,-182.9C620.738,-171.706 647.056,-154.663 661,-130 674.891,-105.429 672.595,-72.4881 668.259,-49.2714"/>
<polygon fill="black" stroke="black" points="671.657,-48.4195 666.174,-39.3535 664.806,-49.8597 671.657,-48.4195"/>
<text text-anchor="middle" x="686.5" y="-107.3" font-family="Times New Roman,serif" font-size="14.00">value</text>
</g>
<!-- node1503 -->
<g id="node18" class="node"><title>node1503</title>
<polygon fill="#eefc90" stroke="black" points="550,-93 550,-129 652,-129 652,-93 550,-93"/>
<text text-anchor="middle" x="601" y="-107.3" font-family="Times New Roman,serif" font-size="14.00">Class = Tuple2</text>
</g>
<!-- node1500&#45;&gt;node1503 -->
<g id="edge19" class="edge"><title>node1500&#45;&gt;node1503</title>
<path fill="none" stroke="black" d="M554.737,-182.99C563.235,-169.95 574.842,-152.139 584.304,-137.62"/>
<polygon fill="black" stroke="black" points="587.343,-139.367 589.871,-129.078 581.478,-135.545 587.343,-139.367"/>
<text text-anchor="middle" x="585" y="-152.3" font-family="Times New Roman,serif" font-size="14.00">kv</text>
</g>
<!-- node1503&#45;&gt;node1501 -->
<g id="edge20" class="edge"><title>node1503&#45;&gt;node1501</title>
<path fill="none" stroke="black" d="M587.503,-92.8399C577.341,-79.919 563.229,-61.9772 551.651,-47.2566"/>
<polygon fill="black" stroke="black" points="554.109,-44.7203 545.176,-39.0239 548.607,-49.0478 554.109,-44.7203"/>
<text text-anchor="middle" x="580.5" y="-62.3" font-family="Times New Roman,serif" font-size="14.00">_1</text>
</g>
<!-- node1503&#45;&gt;node1502 -->
<g id="edge21" class="edge"><title>node1503&#45;&gt;node1502</title>
<path fill="none" stroke="black" d="M612.569,-92.8399C621.198,-80.0397 633.149,-62.3122 643.02,-47.6702"/>
<polygon fill="black" stroke="black" points="646.161,-49.2721 648.849,-39.0239 640.357,-45.3591 646.161,-49.2721"/>
<text text-anchor="middle" x="642.5" y="-62.3" font-family="Times New Roman,serif" font-size="14.00">_2</text>
</g>
</g>
</svg>
