<?xml version="1.0" encoding="UTF-8" standalone="no"?>
<!DOCTYPE svg PUBLIC "-//W3C//DTD SVG 1.1//EN"
 "http://www.w3.org/Graphics/SVG/1.1/DTD/svg11.dtd">
<!-- Generated by graphviz version 2.30.1 (20130214.1330)
 -->
<!-- Title: hmap&#45;ops_simple Pages: 1 -->
<svg width="595pt" height="470pt"
 viewBox="0.00 0.00 595.00 470.00" xmlns="http://www.w3.org/2000/svg" xmlns:xlink="http://www.w3.org/1999/xlink">
<g id="graph0" class="graph" transform="scale(1 1) rotate(0) translate(4 466)">
<title>hmap&#45;ops_simple</title>
<polygon fill="white" stroke="white" points="-4,5 -4,-466 592,-466 592,5 -4,5"/>
<!-- node1513 -->
<g id="node1" class="node"><title>node1513</title>
<polygon fill="#fca790" stroke="none" points="181,-462 127,-462 127,-426 181,-426 181,-462"/>
<text text-anchor="middle" x="154" y="-440.3" font-family="Times New Roman,serif" font-size="14.00">hmap</text>
</g>
<!-- node1514 -->
<g id="node2" class="node"><title>node1514</title>
<ellipse fill="#fca790" stroke="black" cx="154" cy="-370" rx="60.1672" ry="18"/>
<text text-anchor="middle" x="154" y="-366.3" font-family="Times New Roman,serif" font-size="14.00">HashTrieMap</text>
</g>
<!-- node1513&#45;&gt;node1514 -->
<g id="edge1" class="edge"><title>node1513&#45;&gt;node1514</title>
<path fill="none" stroke="black" d="M154,-425.937C154,-417.807 154,-407.876 154,-398.705"/>
<polygon fill="black" stroke="black" points="157.5,-398.441 154,-388.441 150.5,-398.441 157.5,-398.441"/>
</g>
<!-- node1516 -->
<g id="node3" class="node"><title>node1516</title>
<ellipse fill="#fca790" stroke="black" cx="154" cy="-282" rx="51.4931" ry="18"/>
<text text-anchor="middle" x="154" y="-278.3" font-family="Times New Roman,serif" font-size="14.00">HashMap[]</text>
</g>
<!-- node1514&#45;&gt;node1516 -->
<g id="edge2" class="edge"><title>node1514&#45;&gt;node1516</title>
<path fill="none" stroke="black" d="M154,-351.597C154,-339.746 154,-323.817 154,-310.292"/>
<polygon fill="black" stroke="black" points="157.5,-310.084 154,-300.084 150.5,-310.084 157.5,-310.084"/>
<text text-anchor="middle" x="170" y="-322.3" font-family="Times New Roman,serif" font-size="14.00">elems</text>
</g>
<!-- node1519 -->
<g id="node4" class="node"><title>node1519</title>
<ellipse fill="#fca790" stroke="black" cx="154" cy="-194" rx="50.0684" ry="18"/>
<text text-anchor="middle" x="154" y="-190.3" font-family="Times New Roman,serif" font-size="14.00">HashMap1</text>
</g>
<!-- node1516&#45;&gt;node1519 -->
<g id="edge13" class="edge"><title>node1516&#45;&gt;node1519</title>
<path fill="none" stroke="black" d="M154,-263.597C154,-251.746 154,-235.817 154,-222.292"/>
<polygon fill="black" stroke="black" points="157.5,-222.084 154,-212.084 150.5,-222.084 157.5,-222.084"/>
<text text-anchor="middle" x="157.5" y="-234.3" font-family="Times New Roman,serif" font-size="14.00">0</text>
</g>
<!-- node1520 -->
<g id="node5" class="node"><title>node1520</title>
<ellipse fill="#fca790" stroke="black" cx="293" cy="-194" rx="50.0684" ry="18"/>
<text text-anchor="middle" x="293" y="-190.3" font-family="Times New Roman,serif" font-size="14.00">HashMap1</text>
</g>
<!-- node1516&#45;&gt;node1520 -->
<g id="edge14" class="edge"><title>node1516&#45;&gt;node1520</title>
<path fill="none" stroke="black" d="M173.252,-265.043C186.509,-254.442 204.772,-240.58 222,-230 231.863,-223.943 242.92,-218.083 253.319,-212.947"/>
<polygon fill="black" stroke="black" points="255.149,-215.95 262.631,-208.448 252.104,-209.647 255.149,-215.95"/>
<text text-anchor="middle" x="225.5" y="-234.3" font-family="Times New Roman,serif" font-size="14.00">1</text>
</g>
<!-- node1521 -->
<g id="node6" class="node"><title>node1521</title>
<ellipse fill="#fca790" stroke="black" cx="27" cy="-18" rx="27" ry="18"/>
<text text-anchor="middle" x="27" y="-14.3" font-family="Times New Roman,serif" font-size="14.00">Foo</text>
</g>
<!-- node1519&#45;&gt;node1521 -->
<g id="edge3" class="edge"><title>node1519&#45;&gt;node1521</title>
<path fill="none" stroke="black" d="M111.807,-184.253C79.6574,-175.135 37.5326,-157.331 17,-124 2.42474,-100.34 8.64419,-67.8325 16.126,-45.282"/>
<polygon fill="black" stroke="black" points="19.4853,-46.2835 19.5822,-35.6891 12.8997,-43.9107 19.4853,-46.2835"/>
<text text-anchor="middle" x="27" y="-102.3" font-family="Times New Roman,serif" font-size="14.00">key</text>
</g>
<!-- node1522 -->
<g id="node7" class="node"><title>node1522</title>
<ellipse fill="#fca790" stroke="black" cx="118" cy="-18" rx="27" ry="18"/>
<text text-anchor="middle" x="118" y="-14.3" font-family="Times New Roman,serif" font-size="14.00">Bar</text>
</g>
<!-- node1519&#45;&gt;node1522 -->
<g id="edge4" class="edge"><title>node1519&#45;&gt;node1522</title>
<path fill="none" stroke="black" d="M150.483,-175.999C144.219,-145.723 131.085,-82.2454 123.578,-45.9616"/>
<polygon fill="black" stroke="black" points="126.985,-45.1531 121.532,-36.0697 120.13,-46.5714 126.985,-45.1531"/>
<text text-anchor="middle" x="154.5" y="-102.3" font-family="Times New Roman,serif" font-size="14.00">value</text>
</g>
<!-- node1523 -->
<g id="node8" class="node"><title>node1523</title>
<ellipse fill="#fca790" stroke="black" cx="82" cy="-106" rx="36.096" ry="18"/>
<text text-anchor="middle" x="82" y="-102.3" font-family="Times New Roman,serif" font-size="14.00">Tuple2</text>
</g>
<!-- node1519&#45;&gt;node1523 -->
<g id="edge5" class="edge"><title>node1519&#45;&gt;node1523</title>
<path fill="none" stroke="black" d="M140.118,-176.418C129.323,-163.525 114.197,-145.458 102.082,-130.987"/>
<polygon fill="black" stroke="black" points="104.456,-128.37 95.3529,-122.949 99.0886,-132.864 104.456,-128.37"/>
<text text-anchor="middle" x="132" y="-146.3" font-family="Times New Roman,serif" font-size="14.00">kv</text>
</g>
<!-- node1524 -->
<g id="node9" class="node"><title>node1524</title>
<ellipse fill="#fca790" stroke="black" cx="251" cy="-18" rx="27" ry="18"/>
<text text-anchor="middle" x="251" y="-14.3" font-family="Times New Roman,serif" font-size="14.00">Foo</text>
</g>
<!-- node1520&#45;&gt;node1524 -->
<g id="edge6" class="edge"><title>node1520&#45;&gt;node1524</title>
<path fill="none" stroke="black" d="M271.581,-177.584C256.215,-165.106 236.741,-146.028 228,-124 217.614,-97.8273 227.462,-66.0296 237.299,-44.3305"/>
<polygon fill="black" stroke="black" points="240.547,-45.6546 241.746,-35.1278 234.244,-42.6091 240.547,-45.6546"/>
<text text-anchor="middle" x="238" y="-102.3" font-family="Times New Roman,serif" font-size="14.00">key</text>
</g>
<!-- node1525 -->
<g id="node10" class="node"><title>node1525</title>
<ellipse fill="#fca790" stroke="black" cx="337" cy="-18" rx="27" ry="18"/>
<text text-anchor="middle" x="337" y="-14.3" font-family="Times New Roman,serif" font-size="14.00">Bar</text>
</g>
<!-- node1520&#45;&gt;node1525 -->
<g id="edge7" class="edge"><title>node1520&#45;&gt;node1525</title>
<path fill="none" stroke="black" d="M307.711,-176.544C318.439,-163.374 332.091,-143.878 338,-124 345.599,-98.4378 344.187,-67.804 341.581,-46.2414"/>
<polygon fill="black" stroke="black" points="345.024,-45.588 340.195,-36.1575 338.089,-46.5408 345.024,-45.588"/>
<text text-anchor="middle" x="358.5" y="-102.3" font-family="Times New Roman,serif" font-size="14.00">value</text>
</g>
<!-- node1526 -->
<g id="node11" class="node"><title>node1526</title>
<ellipse fill="#fca790" stroke="black" cx="293" cy="-106" rx="36.096" ry="18"/>
<text text-anchor="middle" x="293" y="-102.3" font-family="Times New Roman,serif" font-size="14.00">Tuple2</text>
</g>
<!-- node1520&#45;&gt;node1526 -->
<g id="edge8" class="edge"><title>node1520&#45;&gt;node1526</title>
<path fill="none" stroke="black" d="M293,-175.597C293,-163.746 293,-147.817 293,-134.292"/>
<polygon fill="black" stroke="black" points="296.5,-134.084 293,-124.084 289.5,-134.084 296.5,-134.084"/>
<text text-anchor="middle" x="300" y="-146.3" font-family="Times New Roman,serif" font-size="14.00">kv</text>
</g>
<!-- node1523&#45;&gt;node1521 -->
<g id="edge9" class="edge"><title>node1523&#45;&gt;node1521</title>
<path fill="none" stroke="black" d="M71.3954,-88.4183C63.2267,-75.6454 51.8107,-57.7949 42.6008,-43.3939"/>
<polygon fill="black" stroke="black" points="45.5365,-41.488 37.2001,-34.9493 39.6393,-45.2595 45.5365,-41.488"/>
<text text-anchor="middle" x="67.5" y="-58.3" font-family="Times New Roman,serif" font-size="14.00">_1</text>
</g>
<!-- node1523&#45;&gt;node1522 -->
<g id="edge10" class="edge"><title>node1523&#45;&gt;node1522</title>
<path fill="none" stroke="black" d="M89.1124,-88.0092C94.224,-75.7981 101.212,-59.1047 107.035,-45.1952"/>
<polygon fill="black" stroke="black" points="110.392,-46.2388 111.025,-35.6629 103.935,-43.5358 110.392,-46.2388"/>
<text text-anchor="middle" x="111.5" y="-58.3" font-family="Times New Roman,serif" font-size="14.00">_2</text>
</g>
<!-- node1526&#45;&gt;node1524 -->
<g id="edge11" class="edge"><title>node1526&#45;&gt;node1524</title>
<path fill="none" stroke="black" d="M281.212,-88.7239C277.346,-82.9749 273.221,-76.3561 270,-70 266.096,-62.2959 262.558,-53.5915 259.622,-45.5832"/>
<polygon fill="black" stroke="black" points="262.853,-44.2194 256.242,-35.9395 256.246,-46.5343 262.853,-44.2194"/>
<text text-anchor="middle" x="277.5" y="-58.3" font-family="Times New Roman,serif" font-size="14.00">_1</text>
</g>
<!-- node1526&#45;&gt;node1525 -->
<g id="edge12" class="edge"><title>node1526&#45;&gt;node1525</title>
<path fill="none" stroke="black" d="M301.484,-88.4183C307.855,-75.9657 316.695,-58.687 323.962,-44.4837"/>
<polygon fill="black" stroke="black" points="327.253,-45.7358 328.692,-35.2391 321.021,-42.5474 327.253,-45.7358"/>
<text text-anchor="middle" x="326.5" y="-58.3" font-family="Times New Roman,serif" font-size="14.00">_2</text>
</g>
<!-- node1540 -->
<g id="node12" class="node"><title>node1540</title>
<polygon fill="#eefc90" stroke="none" points="337.25,-462 248.75,-462 248.75,-426 337.25,-426 337.25,-462"/>
<text text-anchor="middle" x="293" y="-440.3" font-family="Times New Roman,serif" font-size="14.00">hmap_added</text>
</g>
<!-- node1541 -->
<g id="node13" class="node"><title>node1541</title>
<ellipse fill="#eefc90" stroke="black" cx="293" cy="-370" rx="60.1672" ry="18"/>
<text text-anchor="middle" x="293" y="-366.3" font-family="Times New Roman,serif" font-size="14.00">HashTrieMap</text>
</g>
<!-- node1540&#45;&gt;node1541 -->
<g id="edge15" class="edge"><title>node1540&#45;&gt;node1541</title>
<path fill="none" stroke="black" d="M293,-425.937C293,-417.807 293,-407.876 293,-398.705"/>
<polygon fill="black" stroke="black" points="296.5,-398.441 293,-388.441 289.5,-398.441 296.5,-398.441"/>
</g>
<!-- node1543 -->
<g id="node14" class="node"><title>node1543</title>
<ellipse fill="#eefc90" stroke="black" cx="293" cy="-282" rx="51.4931" ry="18"/>
<text text-anchor="middle" x="293" y="-278.3" font-family="Times New Roman,serif" font-size="14.00">HashMap[]</text>
</g>
<!-- node1541&#45;&gt;node1543 -->
<g id="edge16" class="edge"><title>node1541&#45;&gt;node1543</title>
<path fill="none" stroke="black" d="M293,-351.597C293,-339.746 293,-323.817 293,-310.292"/>
<polygon fill="black" stroke="black" points="296.5,-310.084 293,-300.084 289.5,-310.084 296.5,-310.084"/>
<text text-anchor="middle" x="309" y="-322.3" font-family="Times New Roman,serif" font-size="14.00">elems</text>
</g>
<!-- node1543&#45;&gt;node1519 -->
<g id="edge22" class="edge"><title>node1543&#45;&gt;node1519</title>
<path fill="none" stroke="black" d="M275.365,-265.064C262.962,-254.34 245.666,-240.327 229,-230 218.408,-223.437 206.386,-217.304 195.118,-212.063"/>
<polygon fill="black" stroke="black" points="196.432,-208.816 185.878,-207.881 193.545,-215.193 196.432,-208.816"/>
<text text-anchor="middle" x="255.5" y="-234.3" font-family="Times New Roman,serif" font-size="14.00">0</text>
</g>
<!-- node1543&#45;&gt;node1520 -->
<g id="edge23" class="edge"><title>node1543&#45;&gt;node1520</title>
<path fill="none" stroke="black" d="M293,-263.597C293,-251.746 293,-235.817 293,-222.292"/>
<polygon fill="black" stroke="black" points="296.5,-222.084 293,-212.084 289.5,-222.084 296.5,-222.084"/>
<text text-anchor="middle" x="296.5" y="-234.3" font-family="Times New Roman,serif" font-size="14.00">1</text>
</g>
<!-- node1547 -->
<g id="node15" class="node"><title>node1547</title>
<ellipse fill="#eefc90" stroke="black" cx="456" cy="-194" rx="50.0684" ry="18"/>
<text text-anchor="middle" x="456" y="-190.3" font-family="Times New Roman,serif" font-size="14.00">HashMap1</text>
</g>
<!-- node1543&#45;&gt;node1547 -->
<g id="edge24" class="edge"><title>node1543&#45;&gt;node1547</title>
<path fill="none" stroke="black" d="M320.283,-266.606C347.633,-252.175 389.891,-229.879 419.982,-214.003"/>
<polygon fill="black" stroke="black" points="421.689,-217.06 428.9,-209.298 418.422,-210.869 421.689,-217.06"/>
<text text-anchor="middle" x="393.5" y="-234.3" font-family="Times New Roman,serif" font-size="14.00">2</text>
</g>
<!-- node1548 -->
<g id="node16" class="node"><title>node1548</title>
<ellipse fill="#eefc90" stroke="black" cx="462" cy="-18" rx="27" ry="18"/>
<text text-anchor="middle" x="462" y="-14.3" font-family="Times New Roman,serif" font-size="14.00">Foo</text>
</g>
<!-- node1547&#45;&gt;node1548 -->
<g id="edge17" class="edge"><title>node1547&#45;&gt;node1548</title>
<path fill="none" stroke="black" d="M449.831,-175.904C443.118,-155.123 433.971,-118.988 439,-88 441.362,-73.4443 446.355,-57.8098 451.088,-45.1098"/>
<polygon fill="black" stroke="black" points="454.412,-46.2191 454.772,-35.6304 447.887,-43.6834 454.412,-46.2191"/>
<text text-anchor="middle" x="449" y="-102.3" font-family="Times New Roman,serif" font-size="14.00">key</text>
</g>
<!-- node1549 -->
<g id="node17" class="node"><title>node1549</title>
<ellipse fill="#eefc90" stroke="black" cx="548" cy="-18" rx="27" ry="18"/>
<text text-anchor="middle" x="548" y="-14.3" font-family="Times New Roman,serif" font-size="14.00">Bar</text>
</g>
<!-- node1547&#45;&gt;node1549 -->
<g id="edge18" class="edge"><title>node1547&#45;&gt;node1549</title>
<path fill="none" stroke="black" d="M486.809,-179.548C508.572,-168.201 536.076,-149.681 549,-124 561.184,-99.7899 558.879,-68.2865 554.804,-46.1262"/>
<polygon fill="black" stroke="black" points="558.177,-45.1513 552.718,-36.071 551.323,-46.5736 558.177,-45.1513"/>
<text text-anchor="middle" x="572.5" y="-102.3" font-family="Times New Roman,serif" font-size="14.00">value</text>
</g>
<!-- node1550 -->
<g id="node18" class="node"><title>node1550</title>
<ellipse fill="#eefc90" stroke="black" cx="504" cy="-106" rx="36.096" ry="18"/>
<text text-anchor="middle" x="504" y="-102.3" font-family="Times New Roman,serif" font-size="14.00">Tuple2</text>
</g>
<!-- node1547&#45;&gt;node1550 -->
<g id="edge19" class="edge"><title>node1547&#45;&gt;node1550</title>
<path fill="none" stroke="black" d="M465.483,-176.009C472.365,-163.68 481.797,-146.78 489.605,-132.791"/>
<polygon fill="black" stroke="black" points="492.882,-134.101 494.7,-123.663 486.77,-130.689 492.882,-134.101"/>
<text text-anchor="middle" x="492" y="-146.3" font-family="Times New Roman,serif" font-size="14.00">kv</text>
</g>
<!-- node1550&#45;&gt;node1548 -->
<g id="edge20" class="edge"><title>node1550&#45;&gt;node1548</title>
<path fill="none" stroke="black" d="M492.212,-88.7239C488.346,-82.9749 484.221,-76.3561 481,-70 477.096,-62.2959 473.558,-53.5915 470.622,-45.5832"/>
<polygon fill="black" stroke="black" points="473.853,-44.2194 467.242,-35.9395 467.246,-46.5343 473.853,-44.2194"/>
<text text-anchor="middle" x="488.5" y="-58.3" font-family="Times New Roman,serif" font-size="14.00">_1</text>
</g>
<!-- node1550&#45;&gt;node1549 -->
<g id="edge21" class="edge"><title>node1550&#45;&gt;node1549</title>
<path fill="none" stroke="black" d="M512.484,-88.4183C518.855,-75.9657 527.695,-58.687 534.962,-44.4837"/>
<polygon fill="black" stroke="black" points="538.253,-45.7358 539.692,-35.2391 532.021,-42.5474 538.253,-45.7358"/>
<text text-anchor="middle" x="537.5" y="-58.3" font-family="Times New Roman,serif" font-size="14.00">_2</text>
</g>
</g>
</svg>
