<?xml version="1.0" encoding="UTF-8" standalone="no"?>
<!DOCTYPE svg PUBLIC "-//W3C//DTD SVG 1.1//EN"
 "http://www.w3.org/Graphics/SVG/1.1/DTD/svg11.dtd">
<!-- Generated by graphviz version 2.30.1 (20130214.1330)
 -->
<!-- Title: llist Pages: 1 -->
<svg width="304pt" height="500pt"
 viewBox="0.00 0.00 304.00 500.00" xmlns="http://www.w3.org/2000/svg" xmlns:xlink="http://www.w3.org/1999/xlink">
<g id="graph0" class="graph" transform="scale(1 1) rotate(0) translate(4 496)">
<title>llist</title>
<polygon fill="white" stroke="white" points="-4,5 -4,-496 301,-496 301,5 -4,5"/>
<!-- node120 -->
<g id="node1" class="node"><title>node120</title>
<polygon fill="#fca790" stroke="none" points="213,-492 159,-492 159,-456 213,-456 213,-492"/>
<text text-anchor="middle" x="186" y="-470.3" font-family="Times New Roman,serif" font-size="14.00">llist</text>
</g>
<!-- node121 -->
<g id="node2" class="node"><title>node121</title>
<polygon fill="#fca790" stroke="black" points="125,-364.5 125,-417.5 247,-417.5 247,-364.5 125,-364.5"/>
<text text-anchor="middle" x="186" y="-402.3" font-family="Times New Roman,serif" font-size="14.00">Class = LinkedList</text>
<text text-anchor="middle" x="186" y="-387.3" font-family="Times New Roman,serif" font-size="14.00">modCount = 2</text>
<text text-anchor="middle" x="186" y="-372.3" font-family="Times New Roman,serif" font-size="14.00">size = 2</text>
</g>
<!-- node120&#45;&gt;node121 -->
<g id="edge1" class="edge"><title>node120&#45;&gt;node121</title>
<path fill="none" stroke="black" d="M186,-455.822C186,-447.705 186,-437.693 186,-428.025"/>
<polygon fill="black" stroke="black" points="189.5,-427.775 186,-417.775 182.5,-427.775 189.5,-427.775"/>
</g>
<!-- node123 -->
<g id="node3" class="node"><title>node123</title>
<polygon fill="#fca790" stroke="black" points="139.5,-275 139.5,-311 232.5,-311 232.5,-275 139.5,-275"/>
<text text-anchor="middle" x="186" y="-289.3" font-family="Times New Roman,serif" font-size="14.00">Class = Entry</text>
</g>
<!-- node121&#45;&gt;node123 -->
<g id="edge2" class="edge"><title>node121&#45;&gt;node123</title>
<path fill="none" stroke="black" d="M186,-364.274C186,-350.951 186,-334.687 186,-321.162"/>
<polygon fill="black" stroke="black" points="189.5,-321.011 186,-311.011 182.5,-321.011 189.5,-321.011"/>
<text text-anchor="middle" x="204.5" y="-334.3" font-family="Times New Roman,serif" font-size="14.00">header</text>
</g>
<!-- node124 -->
<g id="node4" class="node"><title>node124</title>
<polygon fill="#fca790" stroke="black" points="60.5,-185 60.5,-221 153.5,-221 153.5,-185 60.5,-185"/>
<text text-anchor="middle" x="107" y="-199.3" font-family="Times New Roman,serif" font-size="14.00">Class = Entry</text>
</g>
<!-- node123&#45;&gt;node124 -->
<g id="edge3" class="edge"><title>node123&#45;&gt;node124</title>
<path fill="none" stroke="black" d="M139.405,-280.394C127.163,-275.022 115.343,-267.237 108,-256 103.294,-248.799 101.953,-239.757 102.123,-231.24"/>
<polygon fill="black" stroke="black" points="105.611,-231.529 102.955,-221.272 98.6349,-230.946 105.611,-231.529"/>
<text text-anchor="middle" x="120" y="-244.3" font-family="Times New Roman,serif" font-size="14.00">next</text>
</g>
<!-- node125 -->
<g id="node5" class="node"><title>node125</title>
<polygon fill="#fca790" stroke="black" points="139.5,-94 139.5,-130 232.5,-130 232.5,-94 139.5,-94"/>
<text text-anchor="middle" x="186" y="-108.3" font-family="Times New Roman,serif" font-size="14.00">Class = Entry</text>
</g>
<!-- node123&#45;&gt;node125 -->
<g id="edge4" class="edge"><title>node123&#45;&gt;node125</title>
<path fill="none" stroke="black" d="M196.689,-274.677C199.663,-268.945 202.491,-262.393 204,-256 214.824,-210.149 214.575,-195.909 204,-150 203.19,-146.482 201.998,-142.912 200.607,-139.446"/>
<polygon fill="black" stroke="black" points="203.664,-137.716 196.31,-130.089 197.303,-140.637 203.664,-137.716"/>
<text text-anchor="middle" x="237.5" y="-199.3" font-family="Times New Roman,serif" font-size="14.00">previous</text>
</g>
<!-- node126 -->
<g id="node6" class="node"><title>node126</title>
<polygon fill="#fca790" stroke="black" points="-0.5,-93 -0.5,-131 82.5,-131 82.5,-93 -0.5,-93"/>
<text text-anchor="middle" x="41" y="-115.8" font-family="Times New Roman,serif" font-size="14.00">Class = Bar</text>
<text text-anchor="middle" x="41" y="-100.8" font-family="Times New Roman,serif" font-size="14.00">ID = 1</text>
</g>
<!-- node124&#45;&gt;node126 -->
<g id="edge5" class="edge"><title>node124&#45;&gt;node126</title>
<path fill="none" stroke="black" d="M61.2981,-184.854C53.628,-179.933 46.6576,-173.736 42,-166 37.6611,-158.793 36.2931,-149.976 36.3277,-141.617"/>
<polygon fill="black" stroke="black" points="39.8338,-141.64 37.0036,-131.43 32.8492,-141.176 39.8338,-141.64"/>
<text text-anchor="middle" x="63.5" y="-154.3" font-family="Times New Roman,serif" font-size="14.00">element</text>
</g>
<!-- node124&#45;&gt;node125 -->
<g id="edge6" class="edge"><title>node124&#45;&gt;node125</title>
<path fill="none" stroke="black" d="M102.992,-184.751C101.468,-173.934 101.435,-160.163 108,-150 113.49,-141.502 121.507,-134.913 130.338,-129.817"/>
<polygon fill="black" stroke="black" points="132.06,-132.867 139.376,-125.204 128.878,-126.633 132.06,-132.867"/>
<text text-anchor="middle" x="120" y="-154.3" font-family="Times New Roman,serif" font-size="14.00">next</text>
</g>
<!-- node124&#45;&gt;node123 -->
<g id="edge7" class="edge"><title>node124&#45;&gt;node123</title>
<path fill="none" stroke="black" d="M122.307,-221.05C133.99,-234.065 150.267,-252.196 163.441,-266.871"/>
<polygon fill="black" stroke="black" points="161.107,-269.511 170.392,-274.614 166.316,-264.835 161.107,-269.511"/>
<text text-anchor="middle" x="178.5" y="-244.3" font-family="Times New Roman,serif" font-size="14.00">previous</text>
</g>
<!-- node127 -->
<g id="node7" class="node"><title>node127</title>
<polygon fill="#fca790" stroke="black" points="144.5,-1 144.5,-39 227.5,-39 227.5,-1 144.5,-1"/>
<text text-anchor="middle" x="186" y="-23.8" font-family="Times New Roman,serif" font-size="14.00">Class = Bar</text>
<text text-anchor="middle" x="186" y="-8.8" font-family="Times New Roman,serif" font-size="14.00">ID = 2</text>
</g>
<!-- node125&#45;&gt;node127 -->
<g id="edge8" class="edge"><title>node125&#45;&gt;node127</title>
<path fill="none" stroke="black" d="M186,-93.6471C186,-81.0694 186,-63.7871 186,-49.2343"/>
<polygon fill="black" stroke="black" points="189.5,-49.2264 186,-39.2264 182.5,-49.2264 189.5,-49.2264"/>
<text text-anchor="middle" x="207.5" y="-62.3" font-family="Times New Roman,serif" font-size="14.00">element</text>
</g>
<!-- node125&#45;&gt;node123 -->
<g id="edge9" class="edge"><title>node125&#45;&gt;node123</title>
<path fill="none" stroke="black" d="M215.833,-130.266C234.036,-142.641 255.721,-161.135 266,-184 272.925,-199.404 272.979,-206.62 266,-222 257.298,-241.177 240.459,-257.166 224.466,-268.999"/>
<polygon fill="black" stroke="black" points="222.387,-266.182 216.227,-274.803 226.418,-271.905 222.387,-266.182"/>
<text text-anchor="middle" x="284" y="-199.3" font-family="Times New Roman,serif" font-size="14.00">next</text>
</g>
<!-- node125&#45;&gt;node124 -->
<g id="edge10" class="edge"><title>node125&#45;&gt;node124</title>
<path fill="none" stroke="black" d="M170.815,-130.107C159.024,-143.391 142.502,-162.004 129.224,-176.962"/>
<polygon fill="black" stroke="black" points="126.253,-175.038 122.232,-184.84 131.488,-179.685 126.253,-175.038"/>
<text text-anchor="middle" x="176.5" y="-154.3" font-family="Times New Roman,serif" font-size="14.00">previous</text>
</g>
</g>
</svg>
