<?xml version="1.0" encoding="UTF-8" standalone="no"?>
<!DOCTYPE svg PUBLIC "-//W3C//DTD SVG 1.1//EN"
 "http://www.w3.org/Graphics/SVG/1.1/DTD/svg11.dtd">
<!-- Generated by graphviz version 2.30.1 (20130214.1330)
 -->
<!-- Title: strings Pages: 1 -->
<svg width="218pt" height="242pt"
 viewBox="0.00 0.00 218.00 242.00" xmlns="http://www.w3.org/2000/svg" xmlns:xlink="http://www.w3.org/1999/xlink">
<g id="graph0" class="graph" transform="scale(1 1) rotate(0) translate(4 238)">
<title>strings</title>
<polygon fill="white" stroke="white" points="-4,5 -4,-238 215,-238 215,5 -4,5"/>
<!-- node66 -->
<g id="node1" class="node"><title>node66</title>
<polygon fill="#fca790" stroke="none" points="76.25,-234 19.75,-234 19.75,-198 76.25,-198 76.25,-234"/>
<text text-anchor="middle" x="48" y="-212.3" font-family="Times New Roman,serif" font-size="14.00">brother</text>
</g>
<!-- node67 -->
<g id="node2" class="node"><title>node67</title>
<polygon fill="#fca790" stroke="black" points="0,-91 0,-159 96,-159 96,-91 0,-91"/>
<text text-anchor="middle" x="48" y="-143.8" font-family="Times New Roman,serif" font-size="14.00">Class = String</text>
<text text-anchor="middle" x="48" y="-128.8" font-family="Times New Roman,serif" font-size="14.00">count = 7</text>
<text text-anchor="middle" x="48" y="-113.8" font-family="Times New Roman,serif" font-size="14.00">hash = 0</text>
<text text-anchor="middle" x="48" y="-98.8" font-family="Times New Roman,serif" font-size="14.00">offset = 0</text>
</g>
<!-- node66&#45;&gt;node67 -->
<g id="edge1" class="edge"><title>node66&#45;&gt;node67</title>
<path fill="none" stroke="black" d="M48,-197.84C48,-189.657 48,-179.46 48,-169.343"/>
<polygon fill="black" stroke="black" points="51.5001,-169.33 48,-159.33 44.5001,-169.33 51.5001,-169.33"/>
</g>
<!-- node69 -->
<g id="node3" class="node"><title>node69</title>
<polygon fill="#fca790" stroke="black" points="34,-1 34,-37 190,-37 190,-1 34,-1"/>
<text text-anchor="middle" x="46" y="-15.3" font-family="Times New Roman,serif" font-size="14.00">b</text>
<polyline fill="none" stroke="black" points="58,-1 58,-37 "/>
<text text-anchor="middle" x="68.5" y="-15.3" font-family="Times New Roman,serif" font-size="14.00">r</text>
<polyline fill="none" stroke="black" points="79,-1 79,-37 "/>
<text text-anchor="middle" x="91" y="-15.3" font-family="Times New Roman,serif" font-size="14.00">o</text>
<polyline fill="none" stroke="black" points="103,-1 103,-37 "/>
<text text-anchor="middle" x="113" y="-15.3" font-family="Times New Roman,serif" font-size="14.00">t</text>
<polyline fill="none" stroke="black" points="123,-1 123,-37 "/>
<text text-anchor="middle" x="134.5" y="-15.3" font-family="Times New Roman,serif" font-size="14.00">h</text>
<polyline fill="none" stroke="black" points="146,-1 146,-37 "/>
<text text-anchor="middle" x="157.5" y="-15.3" font-family="Times New Roman,serif" font-size="14.00">e</text>
<polyline fill="none" stroke="black" points="169,-1 169,-37 "/>
<text text-anchor="middle" x="179.5" y="-15.3" font-family="Times New Roman,serif" font-size="14.00">r</text>
</g>
<!-- node67&#45;&gt;node69 -->
<g id="edge2" class="edge"><title>node67&#45;&gt;node69</title>
<path fill="none" stroke="black" d="M68.426,-90.8078C77.3429,-76.3179 87.6455,-59.5761 95.9934,-46.0108"/>
<polygon fill="black" stroke="black" points="99.1592,-47.5445 101.419,-37.1935 93.1975,-43.8758 99.1592,-47.5445"/>
<text text-anchor="middle" x="104.5" y="-60.3" font-family="Times New Roman,serif" font-size="14.00">value</text>
</g>
<!-- node78 -->
<g id="node4" class="node"><title>node78</title>
<polygon fill="#eefc90" stroke="none" points="189,-234 135,-234 135,-198 189,-198 189,-234"/>
<text text-anchor="middle" x="162" y="-212.3" font-family="Times New Roman,serif" font-size="14.00">the</text>
</g>
<!-- node79 -->
<g id="node5" class="node"><title>node79</title>
<polygon fill="#eefc90" stroke="black" points="114,-91 114,-159 210,-159 210,-91 114,-91"/>
<text text-anchor="middle" x="162" y="-143.8" font-family="Times New Roman,serif" font-size="14.00">Class = String</text>
<text text-anchor="middle" x="162" y="-128.8" font-family="Times New Roman,serif" font-size="14.00">count = 3</text>
<text text-anchor="middle" x="162" y="-113.8" font-family="Times New Roman,serif" font-size="14.00">hash = 0</text>
<text text-anchor="middle" x="162" y="-98.8" font-family="Times New Roman,serif" font-size="14.00">offset = 3</text>
</g>
<!-- node78&#45;&gt;node79 -->
<g id="edge3" class="edge"><title>node78&#45;&gt;node79</title>
<path fill="none" stroke="black" d="M162,-197.84C162,-189.657 162,-179.46 162,-169.343"/>
<polygon fill="black" stroke="black" points="165.5,-169.33 162,-159.33 158.5,-169.33 165.5,-169.33"/>
</g>
<!-- node79&#45;&gt;node69 -->
<g id="edge4" class="edge"><title>node79&#45;&gt;node69</title>
<path fill="none" stroke="black" d="M146.042,-90.8078C139.143,-76.4572 131.182,-59.8979 124.694,-46.403"/>
<polygon fill="black" stroke="black" points="127.754,-44.6895 120.266,-37.1935 121.445,-47.7226 127.754,-44.6895"/>
<text text-anchor="middle" x="151.5" y="-60.3" font-family="Times New Roman,serif" font-size="14.00">value</text>
</g>
</g>
</svg>
